<mxfile host="app.diagrams.net" agent="Mozilla/5.0 (Windows NT 10.0; Win64; x64) AppleWebKit/537.36 (KHTML, like Gecko) Chrome/128.0.0.0 Safari/537.36" version="24.7.5">
  <diagram name="Page-1" id="17xLx5Jpj_yAPQxF6Sxz">
    <mxGraphModel dx="1562" dy="1910" grid="1" gridSize="10" guides="1" tooltips="1" connect="1" arrows="1" fold="1" page="1" pageScale="1" pageWidth="850" pageHeight="1100" math="0" shadow="0">
      <root>
        <mxCell id="0" />
        <mxCell id="1" parent="0" />
        <mxCell id="ru2hNwoar7phW9bpmIqV-4" value="" style="rounded=0;whiteSpace=wrap;html=1;fillColor=none;" parent="1" vertex="1">
          <mxGeometry x="20" y="10" width="760" height="480" as="geometry" />
        </mxCell>
        <mxCell id="EuqJdyhRISb5Iu6oAzzc-5" value="" style="rounded=0;whiteSpace=wrap;html=1;dashed=1;strokeColor=#ffffff;" parent="1" vertex="1">
          <mxGeometry x="10" y="-40" width="850" height="560" as="geometry" />
        </mxCell>
        <mxCell id="H-5Uxx9Y_tWyyJxnwMrH-1" value="Usuario" style="rounded=0;whiteSpace=wrap;html=1;" vertex="1" parent="1">
          <mxGeometry x="330" y="310" width="120" height="60" as="geometry" />
        </mxCell>
        <mxCell id="H-5Uxx9Y_tWyyJxnwMrH-2" value="_id" style="ellipse;whiteSpace=wrap;html=1;" vertex="1" parent="1">
          <mxGeometry x="200" y="290" width="70" height="50" as="geometry" />
        </mxCell>
        <mxCell id="H-5Uxx9Y_tWyyJxnwMrH-3" value="role" style="ellipse;whiteSpace=wrap;html=1;" vertex="1" parent="1">
          <mxGeometry x="210" y="390" width="70" height="50" as="geometry" />
        </mxCell>
        <mxCell id="H-5Uxx9Y_tWyyJxnwMrH-4" value="email" style="ellipse;whiteSpace=wrap;html=1;" vertex="1" parent="1">
          <mxGeometry x="390" y="410" width="70" height="50" as="geometry" />
        </mxCell>
        <mxCell id="H-5Uxx9Y_tWyyJxnwMrH-5" value="username" style="ellipse;whiteSpace=wrap;html=1;" vertex="1" parent="1">
          <mxGeometry x="520" y="360" width="70" height="50" as="geometry" />
        </mxCell>
        <mxCell id="H-5Uxx9Y_tWyyJxnwMrH-6" value="password(hashed)" style="ellipse;whiteSpace=wrap;html=1;" vertex="1" parent="1">
          <mxGeometry x="520" y="290" width="110" height="50" as="geometry" />
        </mxCell>
        <mxCell id="H-5Uxx9Y_tWyyJxnwMrH-7" value="" style="endArrow=none;html=1;rounded=0;exitX=1;exitY=0.5;exitDx=0;exitDy=0;entryX=0;entryY=0.25;entryDx=0;entryDy=0;" edge="1" parent="1" source="H-5Uxx9Y_tWyyJxnwMrH-2" target="H-5Uxx9Y_tWyyJxnwMrH-1">
          <mxGeometry width="50" height="50" relative="1" as="geometry">
            <mxPoint x="370" y="370" as="sourcePoint" />
            <mxPoint x="420" y="320" as="targetPoint" />
          </mxGeometry>
        </mxCell>
        <mxCell id="H-5Uxx9Y_tWyyJxnwMrH-8" value="" style="endArrow=none;html=1;rounded=0;exitX=1;exitY=0;exitDx=0;exitDy=0;entryX=0;entryY=0.75;entryDx=0;entryDy=0;" edge="1" parent="1" source="H-5Uxx9Y_tWyyJxnwMrH-3" target="H-5Uxx9Y_tWyyJxnwMrH-1">
          <mxGeometry width="50" height="50" relative="1" as="geometry">
            <mxPoint x="280" y="325" as="sourcePoint" />
            <mxPoint x="340" y="335" as="targetPoint" />
          </mxGeometry>
        </mxCell>
        <mxCell id="H-5Uxx9Y_tWyyJxnwMrH-9" value="" style="endArrow=none;html=1;rounded=0;exitX=0.5;exitY=0;exitDx=0;exitDy=0;entryX=0.5;entryY=1;entryDx=0;entryDy=0;" edge="1" parent="1" source="H-5Uxx9Y_tWyyJxnwMrH-4" target="H-5Uxx9Y_tWyyJxnwMrH-1">
          <mxGeometry width="50" height="50" relative="1" as="geometry">
            <mxPoint x="280" y="407" as="sourcePoint" />
            <mxPoint x="340" y="365" as="targetPoint" />
          </mxGeometry>
        </mxCell>
        <mxCell id="H-5Uxx9Y_tWyyJxnwMrH-10" value="" style="endArrow=none;html=1;rounded=0;exitX=0;exitY=0;exitDx=0;exitDy=0;entryX=1;entryY=0.75;entryDx=0;entryDy=0;" edge="1" parent="1" source="H-5Uxx9Y_tWyyJxnwMrH-5" target="H-5Uxx9Y_tWyyJxnwMrH-1">
          <mxGeometry width="50" height="50" relative="1" as="geometry">
            <mxPoint x="290" y="417" as="sourcePoint" />
            <mxPoint x="350" y="375" as="targetPoint" />
          </mxGeometry>
        </mxCell>
        <mxCell id="H-5Uxx9Y_tWyyJxnwMrH-11" value="" style="endArrow=none;html=1;rounded=0;exitX=0;exitY=0.5;exitDx=0;exitDy=0;entryX=1;entryY=0.25;entryDx=0;entryDy=0;" edge="1" parent="1" source="H-5Uxx9Y_tWyyJxnwMrH-6" target="H-5Uxx9Y_tWyyJxnwMrH-1">
          <mxGeometry width="50" height="50" relative="1" as="geometry">
            <mxPoint x="300" y="427" as="sourcePoint" />
            <mxPoint x="360" y="385" as="targetPoint" />
          </mxGeometry>
        </mxCell>
        <mxCell id="H-5Uxx9Y_tWyyJxnwMrH-12" value="Partido" style="rounded=0;whiteSpace=wrap;html=1;" vertex="1" parent="1">
          <mxGeometry x="330" y="170" width="120" height="60" as="geometry" />
        </mxCell>
        <mxCell id="H-5Uxx9Y_tWyyJxnwMrH-13" value="Equipo" style="rounded=0;whiteSpace=wrap;html=1;" vertex="1" parent="1">
          <mxGeometry x="330" y="-10" width="120" height="60" as="geometry" />
        </mxCell>
        <mxCell id="H-5Uxx9Y_tWyyJxnwMrH-14" value="Jugador" style="rounded=0;whiteSpace=wrap;html=1;" vertex="1" parent="1">
          <mxGeometry x="660" y="-10" width="120" height="60" as="geometry" />
        </mxCell>
        <mxCell id="H-5Uxx9Y_tWyyJxnwMrH-15" value="" style="endArrow=none;html=1;rounded=0;entryX=0.5;entryY=0;entryDx=0;entryDy=0;exitX=0.5;exitY=1;exitDx=0;exitDy=0;" edge="1" parent="1" source="H-5Uxx9Y_tWyyJxnwMrH-16" target="H-5Uxx9Y_tWyyJxnwMrH-12">
          <mxGeometry width="50" height="50" relative="1" as="geometry">
            <mxPoint x="435" y="420" as="sourcePoint" />
            <mxPoint x="400" y="380" as="targetPoint" />
          </mxGeometry>
        </mxCell>
        <mxCell id="H-5Uxx9Y_tWyyJxnwMrH-16" value="" style="rhombus;whiteSpace=wrap;html=1;" vertex="1" parent="1">
          <mxGeometry x="365" y="90" width="50" height="40" as="geometry" />
        </mxCell>
        <mxCell id="H-5Uxx9Y_tWyyJxnwMrH-17" value="" style="endArrow=none;html=1;rounded=0;entryX=0.5;entryY=0;entryDx=0;entryDy=0;exitX=0.5;exitY=1;exitDx=0;exitDy=0;" edge="1" parent="1" source="H-5Uxx9Y_tWyyJxnwMrH-13" target="H-5Uxx9Y_tWyyJxnwMrH-16">
          <mxGeometry width="50" height="50" relative="1" as="geometry">
            <mxPoint x="400" y="130" as="sourcePoint" />
            <mxPoint x="400" y="180" as="targetPoint" />
          </mxGeometry>
        </mxCell>
        <mxCell id="H-5Uxx9Y_tWyyJxnwMrH-18" value="(0,n)" style="text;html=1;align=center;verticalAlign=middle;whiteSpace=wrap;rounded=0;" vertex="1" parent="1">
          <mxGeometry x="390" y="140" width="60" height="30" as="geometry" />
        </mxCell>
        <mxCell id="H-5Uxx9Y_tWyyJxnwMrH-19" value="(2,2)" style="text;html=1;align=center;verticalAlign=middle;whiteSpace=wrap;rounded=0;" vertex="1" parent="1">
          <mxGeometry x="390" y="50" width="60" height="30" as="geometry" />
        </mxCell>
        <mxCell id="H-5Uxx9Y_tWyyJxnwMrH-25" value="" style="rhombus;whiteSpace=wrap;html=1;" vertex="1" parent="1">
          <mxGeometry x="530" width="50" height="40" as="geometry" />
        </mxCell>
        <mxCell id="H-5Uxx9Y_tWyyJxnwMrH-26" value="" style="endArrow=none;html=1;rounded=0;entryX=1;entryY=0.5;entryDx=0;entryDy=0;exitX=0;exitY=0.5;exitDx=0;exitDy=0;" edge="1" parent="1" source="H-5Uxx9Y_tWyyJxnwMrH-25" target="H-5Uxx9Y_tWyyJxnwMrH-13">
          <mxGeometry width="50" height="50" relative="1" as="geometry">
            <mxPoint x="370" y="270" as="sourcePoint" />
            <mxPoint x="420" y="220" as="targetPoint" />
          </mxGeometry>
        </mxCell>
        <mxCell id="H-5Uxx9Y_tWyyJxnwMrH-28" value="" style="endArrow=none;html=1;rounded=0;entryX=1;entryY=0.5;entryDx=0;entryDy=0;exitX=0;exitY=0.5;exitDx=0;exitDy=0;" edge="1" parent="1" source="H-5Uxx9Y_tWyyJxnwMrH-14" target="H-5Uxx9Y_tWyyJxnwMrH-25">
          <mxGeometry width="50" height="50" relative="1" as="geometry">
            <mxPoint x="540" y="30" as="sourcePoint" />
            <mxPoint x="460" y="30" as="targetPoint" />
          </mxGeometry>
        </mxCell>
        <mxCell id="H-5Uxx9Y_tWyyJxnwMrH-29" value="(1,1)" style="text;html=1;align=center;verticalAlign=middle;whiteSpace=wrap;rounded=0;" vertex="1" parent="1">
          <mxGeometry x="480" y="-10" width="60" height="30" as="geometry" />
        </mxCell>
        <mxCell id="H-5Uxx9Y_tWyyJxnwMrH-31" value="(1,n)" style="text;html=1;align=center;verticalAlign=middle;whiteSpace=wrap;rounded=0;" vertex="1" parent="1">
          <mxGeometry x="590" y="-10" width="60" height="30" as="geometry" />
        </mxCell>
      </root>
    </mxGraphModel>
  </diagram>
</mxfile>
